<?xml version="1.0" standalone="no"?>
<!DOCTYPE svg PUBLIC "-//W3C//DTD SVG 20010904//EN"
 "http://www.w3.org/TR/2001/REC-SVG-20010904/DTD/svg10.dtd">
<svg version="1.0" xmlns="http://www.w3.org/2000/svg"
 width="900.000000pt" height="1227.000000pt" viewBox="0 0 900.000000 1227.000000"
 preserveAspectRatio="xMidYMid meet">
<metadata>
Created by potrace 1.10, written by Peter Selinger 2001-2011
</metadata>
<g transform="translate(0.000000,1227.000000) scale(0.100000,-0.100000)"
fill="#000000" stroke="none">
<path d="M4444 11919 c-53 -58 -218 -178 -304 -220 -105 -51 -262 -58 -415
-18 -61 16 -151 68 -187 107 -96 105 -109 114 -147 109 -20 -3 -56 -12 -81
-20 -25 -8 -78 -22 -119 -32 -63 -14 -227 -88 -256 -116 -5 -5 -20 -9 -35 -9
-14 0 -43 -14 -64 -30 -22 -17 -44 -30 -49 -30 -8 0 -104 -57 -203 -120 -92
-59 -442 -319 -463 -343 -7 -10 -18 -17 -23 -17 -9 0 -42 -25 -98 -74 -72 -62
-487 -361 -560 -401 -10 -6 -24 -16 -31 -22 -47 -36 -329 -177 -409 -203 -30
-9 -81 -26 -112 -36 l-58 -18 0 -4291 c0 -4209 0 -4292 19 -4345 40 -113 72
-156 161 -214 38 -25 86 -52 107 -60 21 -8 67 -25 103 -38 36 -13 70 -27 75
-30 17 -11 225 -78 240 -78 8 0 29 -6 47 -14 18 -8 62 -23 98 -35 65 -20 105
-33 170 -56 41 -15 98 -32 240 -74 290 -86 310 -92 350 -106 19 -7 62 -21 95
-30 33 -10 83 -28 110 -40 28 -13 106 -42 174 -65 68 -23 131 -45 140 -50 30
-16 256 -100 268 -100 7 0 27 -6 45 -14 18 -8 53 -22 78 -31 25 -10 73 -30
107 -46 35 -16 68 -29 76 -29 7 0 21 -6 32 -14 11 -7 45 -21 75 -31 74 -24
379 -181 512 -264 109 -67 206 -123 243 -140 11 -5 31 -21 44 -35 31 -33 51
-33 81 -1 82 87 608 372 930 505 30 12 59 26 65 31 5 5 15 9 22 9 7 0 37 12
66 26 28 14 84 36 123 49 40 13 80 28 90 33 11 6 39 18 64 27 44 17 65 26 143
59 21 9 44 16 51 16 8 0 27 7 42 15 16 8 37 15 46 15 10 0 32 6 50 14 18 8 62
23 98 35 36 11 90 30 120 41 49 19 88 31 195 60 17 5 84 27 150 49 66 22 143
48 170 56 28 9 64 22 80 30 17 7 55 20 85 29 30 9 98 30 150 46 52 17 120 38
150 47 79 23 162 50 190 61 14 6 54 18 90 28 125 34 265 111 348 191 7 7 29
47 49 90 l37 78 3 4271 4 4272 -23 24 c-13 14 -41 32 -63 40 -98 39 -154 63
-215 93 -145 71 -268 140 -318 178 -29 22 -70 49 -90 61 -42 23 -108 69 -238
164 -47 34 -87 62 -90 62 -3 0 -50 35 -106 78 -55 42 -112 85 -126 94 -13 9
-28 21 -31 26 -8 12 -195 148 -257 187 -44 28 -105 69 -334 226 -36 25 -72 48
-80 52 -8 4 -28 16 -45 27 -16 11 -37 23 -45 26 -8 4 -46 21 -85 40 -153 72
-241 104 -340 124 -91 19 -135 23 -135 13 0 -12 -89 -104 -119 -123 -13 -8
-33 -22 -45 -31 -83 -62 -229 -95 -372 -86 -63 5 -97 13 -150 38 -62 29 -130
74 -159 105 -5 6 -30 26 -55 44 -25 19 -60 49 -78 67 -38 38 -61 41 -88 12z"/>
</g>
</svg>
